<svg width="24" height="25" viewBox="0 0 24 25" fill="none" xmlns="http://www.w3.org/2000/svg">
<g id="emoji_objects">
<mask id="mask0_167_3647" style="mask-type:alpha" maskUnits="userSpaceOnUse" x="0" y="0" width="24" height="25">
<rect id="Bounding box" y="0.5" width="24" height="24" fill="#D9D9D9"/>
</mask>
<g mask="url(#mask0_167_3647)">
<path id="emoji_objects_2" d="M12 21.4422C11.5987 21.4422 11.2439 21.3364 10.9356 21.1249C10.6272 20.9134 10.4115 20.6358 10.2884 20.2922H9.99997C9.59101 20.2922 9.23877 20.1445 8.94327 19.849C8.64776 19.5535 8.5 19.2012 8.5 18.7923V15.5115C7.49103 14.9 6.69712 14.0801 6.11827 13.0519C5.53942 12.0237 5.25 10.923 5.25 9.74998C5.25 7.86794 5.90448 6.27243 7.21345 4.96345C8.52243 3.65448 10.1179 3 12 3C13.882 3 15.4775 3.65448 16.7865 4.96345C18.0955 6.27243 18.75 7.86794 18.75 9.74998C18.75 10.9436 18.4605 12.0493 17.8817 13.0673C17.3028 14.0852 16.5089 14.9 15.5 15.5115V18.7923C15.5 19.2012 15.3522 19.5535 15.0567 19.849C14.7612 20.1445 14.4089 20.2922 14 20.2922H13.7115C13.5884 20.6358 13.3727 20.9134 13.0644 21.1249C12.7561 21.3364 12.4013 21.4422 12 21.4422ZM9.99997 18.7923H14V17.8538H9.99997V18.7923ZM9.99997 16.9692H14V16H9.99997V16.9692ZM9.79997 14.5H11.4038V11.5884L9.26153 9.44613L10.1 8.60768L12 10.5077L13.9 8.60768L14.7384 9.44613L12.5961 11.5884V14.5H14.2C15.1 14.0666 15.8333 13.4291 16.4 12.5875C16.9666 11.7458 17.25 10.8 17.25 9.74998C17.25 8.28331 16.7416 7.04164 15.725 6.02498C14.7083 5.00831 13.4666 4.49998 12 4.49998C10.5333 4.49998 9.29164 5.00831 8.27497 6.02498C7.25831 7.04164 6.74997 8.28331 6.74997 9.74998C6.74997 10.8 7.03331 11.7458 7.59997 12.5875C8.16664 13.4291 8.89997 14.0666 9.79997 14.5Z" fill="white"/>
</g>
</g>
</svg>
