<svg width="24" height="25" viewBox="0 0 24 25" fill="none" xmlns="http://www.w3.org/2000/svg">
<g id="contract">
<mask id="mask0_167_3654" style="mask-type:alpha" maskUnits="userSpaceOnUse" x="0" y="0" width="24" height="25">
<rect id="Bounding box" y="0.5" width="24" height="24" fill="#D9D9D9"/>
</mask>
<g mask="url(#mask0_167_3654)">
<path id="contract_2" d="M5.99997 22C5.30127 22 4.70993 21.758 4.22595 21.274C3.74198 20.79 3.5 20.1987 3.5 19.5V16.6154H6.5V3H20.5V19.5C20.5 20.1987 20.258 20.79 19.774 21.274C19.29 21.758 18.6987 22 18 22H5.99997ZM18 20.5C18.2833 20.5 18.5208 20.4041 18.7125 20.2125C18.9041 20.0208 19 19.7833 19 19.5V4.49998H7.99998V16.6154H17V19.5C17 19.7833 17.0958 20.0208 17.2875 20.2125C17.4791 20.4041 17.7166 20.5 18 20.5ZM9.1923 9.19225V7.6923H17.8077V9.19225H9.1923ZM9.1923 12.0769V10.5769H17.8077V12.0769H9.1923ZM5.99997 20.5H15.5V18.1153H4.99997V19.5C4.99997 19.7833 5.09581 20.0208 5.28747 20.2125C5.47914 20.4041 5.71664 20.5 5.99997 20.5ZM5.99997 20.5H4.99997H15.5H5.99997Z" fill="white"/>
</g>
</g>
</svg>
