<svg width="24" height="25" viewBox="0 0 24 25" fill="none" xmlns="http://www.w3.org/2000/svg">
<g id="search">
<mask id="mask0_167_3639" style="mask-type:alpha" maskUnits="userSpaceOnUse" x="0" y="0" width="24" height="25">
<rect id="Bounding box" y="0.5" width="24" height="24" fill="#D9D9D9"/>
</mask>
<g mask="url(#mask0_167_3639)">
<path id="search_2" d="M19.5422 21.077L13.2615 14.7962C12.7615 15.2091 12.1865 15.5321 11.5365 15.7655C10.8865 15.9988 10.214 16.1155 9.51916 16.1155C7.80999 16.1155 6.36348 15.5237 5.17961 14.3401C3.99574 13.1566 3.40381 11.7104 3.40381 10.0017C3.40381 8.29296 3.99559 6.84628 5.17916 5.66167C6.36273 4.47707 7.80888 3.88477 9.51761 3.88477C11.2263 3.88477 12.673 4.4767 13.8576 5.66057C15.0422 6.84443 15.6345 8.29095 15.6345 10.0001C15.6345 10.7142 15.5147 11.3963 15.2749 12.0463C15.0352 12.6963 14.7153 13.2617 14.3153 13.7424L20.5961 20.0232L19.5422 21.077ZM9.51916 14.6155C10.8076 14.6155 11.899 14.1684 12.7932 13.2742C13.6874 12.3799 14.1346 11.2886 14.1346 10.0001C14.1346 8.71165 13.6874 7.6203 12.7932 6.72607C11.899 5.83183 10.8076 5.38472 9.51916 5.38472C8.23069 5.38472 7.13934 5.83183 6.24511 6.72607C5.35089 7.6203 4.90378 8.71165 4.90378 10.0001C4.90378 11.2886 5.35089 12.3799 6.24511 13.2742C7.13934 14.1684 8.23069 14.6155 9.51916 14.6155Z" fill="white"/>
</g>
</g>
</svg>
