<svg width="72" height="72" viewBox="0 0 72 72" fill="none" xmlns="http://www.w3.org/2000/svg">
<rect width="72" height="72" rx="10" fill="white"/>
<rect x="0.8" y="0.8" width="70.4" height="70.4" rx="9.2" stroke="#111111" stroke-opacity="0.8" stroke-width="1.6"/>
<path d="M46.3598 21.2986C46.6912 20.7246 47.4251 20.528 47.999 20.8593L49.1537 21.526C49.7277 21.8574 49.9243 22.5913 49.593 23.1652L42.993 34.5968L39.7598 32.7301L46.3598 21.2986Z" fill="white" stroke="#111111" stroke-width="1.6"/>
<path d="M38.9494 37.8659L38.4995 34.9119L39.6258 32.961L42.859 34.8277L41.7326 36.7786L38.9494 37.8659Z" fill="white" stroke="#111111" stroke-width="1.6" stroke-linecap="round"/>
<path d="M40.667 13.1665L24.667 13.1665" stroke="#111111" stroke-width="1.6" stroke-linecap="round"/>
<path d="M40.667 20.5L24.667 20.5" stroke="#111111" stroke-width="1.6" stroke-linecap="round"/>
<path d="M36.667 27.833H24.667" stroke="#111111" stroke-width="1.6" stroke-linecap="round"/>
<path d="M15 47.6719V49.2656H12.1719C12.1875 50.9219 13.1797 52.5234 15.4531 53.1875L14.5 54.75C12.9297 54.2734 11.8438 53.3203 11.2188 52.0938C10.5859 53.5312 9.42969 54.6719 7.71875 55.2344L6.70312 53.6562C9.0625 52.9141 10.125 51.0703 10.1562 49.2656H7.25V47.6719H15ZM18.2031 46.7188V50.0156H20.125V51.6406H18.2031V55.1562H16.2031V46.7188H18.2031ZM13.5469 55.4375C16.5 55.4219 18.3438 56.4375 18.3438 58.1719C18.3438 59.9062 16.5 60.9375 13.5469 60.9375C10.5312 60.9375 8.67188 59.9062 8.67188 58.1719C8.67188 56.4375 10.5312 55.4219 13.5469 55.4375ZM13.5469 56.9844C11.6719 56.9844 10.6562 57.375 10.6719 58.1719C10.6562 58.9844 11.6719 59.3906 13.5469 59.3906C15.3906 59.3906 16.375 58.9844 16.375 58.1719C16.375 57.375 15.3906 56.9844 13.5469 56.9844ZM33.75 53.75V55.3281H28.3906V57.7812H26.4219V55.3281H20.7344V53.75H33.75ZM32.0781 47.3438V52.5781H22.3594V47.3438H32.0781ZM24.3125 48.8906V51.0312H30.125V48.8906H24.3125ZM32.3125 59.0938V60.6875H22.2656V56.5469H24.25V59.0938H32.3125ZM50.2031 46.7188V54.0156H48.2031V46.7188H50.2031ZM50.2031 54.5781V58.375H42.5312V59.2656H50.5938V60.8438H40.5625V56.9531H48.2344V56.125H40.5312V54.5781H50.2031ZM46.6094 47.5938V49.1094H45.4375V51.9375C46.0234 51.8984 46.6016 51.8438 47.1562 51.7812L47.25 53.2031C44.4219 53.6562 41.1875 53.7344 38.7188 53.7344L38.5 52.1719C38.9844 52.1719 39.5 52.1641 40.0312 52.1562V49.1094H38.875V47.5938H46.6094ZM41.9375 52.1094C42.4609 52.1016 42.9844 52.0859 43.5156 52.0625V49.1094H41.9375V52.1094ZM64.0469 46.7188V60.9375H62.0312V46.7188H64.0469ZM59.7812 48.2031C59.7812 52.5156 58.2656 56.0938 53.1875 58.5L52.1406 56.9062C55.8125 55.1719 57.4297 52.9219 57.75 49.7656H52.9062V48.2031H59.7812Z" fill="#111111"/>
</svg>
