<svg width="72" height="72" viewBox="0 0 72 72" fill="none" xmlns="http://www.w3.org/2000/svg">
<rect width="72" height="72" rx="10" fill="white"/>
<rect x="0.8" y="0.8" width="70.4" height="70.4" rx="9.2" stroke="#111111" stroke-opacity="0.8" stroke-width="1.6"/>
<path d="M46.3594 21.299C46.6908 20.7251 47.4247 20.5284 47.9987 20.8598L49.1534 21.5265C49.7273 21.8578 49.924 22.5918 49.5926 23.1657L42.9926 34.5972L39.7594 32.7306L46.3594 21.299Z" fill="white" stroke="#111111" stroke-width="1.6"/>
<path d="M38.9496 37.8664L38.4997 34.9124L39.6261 32.9615L42.8592 34.8281L41.7329 36.779L38.9496 37.8664Z" fill="white" stroke="#111111" stroke-width="1.6" stroke-linecap="round"/>
<path d="M24.6666 13.8461C29.1111 13.7073 38 14.6789 38 18.4266C38 21.3414 33.5558 22.5906 30.2222 24.6726C25.6255 27.5436 26.8889 31.3351 35.7779 33.8335" stroke="#111111" stroke-width="1.6" stroke-linecap="round"/>
<path d="M18.2031 46.7188V50.5938H20.125V52.2344H18.2031V57H16.2031V46.7188H18.2031ZM13.8906 47.8594V49.4531H9.46875V53.0469C12.0391 53.0312 13.4531 52.9531 15.0469 52.6094L15.25 54.2031C13.4688 54.5781 11.8281 54.6562 8.67188 54.6562H7.46875V47.8594H13.8906ZM18.7188 59.0938V60.6875H8.98438V55.9062H10.9688V59.0938H18.7188ZM33.75 53.75V55.3281H28.3906V57.7812H26.4219V55.3281H20.7344V53.75H33.75ZM32.0781 47.3438V52.5781H22.3594V47.3438H32.0781ZM24.3125 48.8906V51.0312H30.125V48.8906H24.3125ZM32.3125 59.0938V60.6875H22.2656V56.5469H24.25V59.0938H32.3125ZM50.2031 46.7188V54.0156H48.2031V46.7188H50.2031ZM50.2031 54.5781V58.375H42.5312V59.2656H50.5938V60.8438H40.5625V56.9531H48.2344V56.125H40.5312V54.5781H50.2031ZM46.6094 47.5938V49.1094H45.4375V51.9375C46.0234 51.8984 46.6016 51.8438 47.1562 51.7812L47.25 53.2031C44.4219 53.6562 41.1875 53.7344 38.7188 53.7344L38.5 52.1719C38.9844 52.1719 39.5 52.1641 40.0312 52.1562V49.1094H38.875V47.5938H46.6094ZM41.9375 52.1094C42.4609 52.1016 42.9844 52.0859 43.5156 52.0625V49.1094H41.9375V52.1094ZM64.0469 46.7188V60.9375H62.0312V46.7188H64.0469ZM59.7812 48.2031C59.7812 52.5156 58.2656 56.0938 53.1875 58.5L52.1406 56.9062C55.8125 55.1719 57.4297 52.9219 57.75 49.7656H52.9062V48.2031H59.7812Z" fill="#111111"/>
</svg>
