<svg width="72" height="72" viewBox="0 0 72 72" fill="none" xmlns="http://www.w3.org/2000/svg">
<rect width="72" height="72" rx="10" fill="white"/>
<rect x="0.8" y="0.8" width="70.4" height="70.4" rx="9.2" stroke="#111111" stroke-opacity="0.8" stroke-width="1.6"/>
<path d="M24.1334 14.3627C24.1334 13.65 24.9951 13.2931 25.4991 13.7971L46.703 35.001C47.207 35.505 46.85 36.3667 46.1373 36.3667H24.9334C24.4915 36.3667 24.1334 36.0085 24.1334 35.5667L24.1334 14.3627Z" stroke="#111111" stroke-width="1.6"/>
<path d="M30.1334 26.2477C30.1334 26.0695 30.3488 25.9803 30.4748 26.1063L34.3939 30.0254C34.5199 30.1514 34.4307 30.3668 34.2525 30.3668H30.3334C30.2229 30.3668 30.1334 30.2773 30.1334 30.1668L30.1334 26.2477Z" stroke="#111111" stroke-width="1.6"/>
<path d="M24.6667 19.8335H26.6667" stroke="#111111" stroke-width="1.6" stroke-linecap="round"/>
<path d="M24.6667 23.8335H26.6667" stroke="#111111" stroke-width="1.6" stroke-linecap="round"/>
<path d="M24.6667 27.8335H26.6667" stroke="#111111" stroke-width="1.6" stroke-linecap="round"/>
<path d="M24.6667 31.8335H26.6667" stroke="#111111" stroke-width="1.6" stroke-linecap="round"/>
<path d="M20.9297 48.6094C20.9141 50.4219 21.9141 52.1875 24.1953 52.9219L23.1328 54.4688C21.6484 53.9531 20.6016 52.9609 19.9922 51.7031C19.3594 53.1484 18.2344 54.3047 16.5547 54.8906L15.4922 53.3125C17.8672 52.5156 18.9141 50.6094 18.9297 48.6719V47.4531H20.9297V48.6094ZM26.9609 46.7188V49.9688H28.8828V51.5781H26.9609V54.9375H24.9609V46.7188H26.9609ZM26.9609 55.5V60.7812H17.6641V55.5H26.9609ZM19.6328 57.0781V59.1875H24.9922V57.0781H19.6328ZM40.7891 46.7188V50.0469H42.7109V51.7031H40.7891V54.9844H38.7891V46.7188H40.7891ZM36.7891 47.5156C36.7891 51.3125 34.3984 53.875 30.1328 54.9531L29.3047 53.4375C32.5469 52.625 34.3281 51.0156 34.6328 49.0938H30.0547V47.5156H36.7891ZM40.7891 55.5469V60.9375H38.7891V57.1406H31.2109V55.5469H40.7891ZM48.5859 50.5938C48.5703 52.7656 49.7266 55.2656 52.0703 56.3438L50.9609 57.9062C49.375 57.1797 48.2422 55.7266 47.6172 54.0156C46.9766 55.8984 45.8125 57.4922 44.1641 58.2656L43.0078 56.6875C45.3828 55.5781 46.5703 52.9375 46.5859 50.5938V49.7188H43.5703V48.0938H51.4453V49.7188H48.5859V50.5938ZM54.5547 46.7188V52.1406H56.6484V53.8125H54.5547V60.9375H52.5547V46.7188H54.5547Z" fill="#111111"/>
</svg>
