<svg width="72" height="72" viewBox="0 0 72 72" fill="none" xmlns="http://www.w3.org/2000/svg">
<rect width="72" height="72" rx="10" fill="white"/>
<rect x="0.8" y="0.8" width="70.4" height="70.4" rx="9.2" stroke="#111111" stroke-opacity="0.8" stroke-width="1.6"/>
<rect x="24.1334" y="13.3" width="17.0667" height="22.4" rx="1.2" stroke="#111111" stroke-width="1.6"/>
<path d="M28 11.1665V15.1665" stroke="#111111" stroke-width="1.6" stroke-linecap="round"/>
<path d="M32.6667 11.1665V15.1665" stroke="#111111" stroke-width="1.6" stroke-linecap="round"/>
<path d="M37.3334 11.1665V15.1665" stroke="#111111" stroke-width="1.6" stroke-linecap="round"/>
<path d="M27.3334 19.1665H38" stroke="#111111" stroke-width="1.6" stroke-linecap="round"/>
<path d="M27.3334 23.1665H38" stroke="#111111" stroke-width="1.6" stroke-linecap="round"/>
<path d="M27.3334 27.1665H38" stroke="#111111" stroke-width="1.6" stroke-linecap="round"/>
<path d="M27.3334 31.1665H38" stroke="#111111" stroke-width="1.6" stroke-linecap="round"/>
<path d="M46.3596 21.2986C46.6909 20.7246 47.4248 20.528 47.9988 20.8593L49.1535 21.526C49.7275 21.8574 49.9241 22.5913 49.5927 23.1652L42.9927 34.5968L39.7596 32.7301L46.3596 21.2986Z" fill="#F8F8F8" stroke="#111111" stroke-width="1.6"/>
<path d="M38.9498 37.8659L38.4998 34.9119L39.6262 32.961L42.8594 34.8277L41.733 36.7786L38.9498 37.8659Z" fill="#F8F8F8" stroke="#111111" stroke-width="1.6" stroke-linecap="round"/>
<path d="M27.6641 46.7344V57.125H25.6797V53.75H22.4297C21.7422 54.4766 20.75 54.9219 19.6484 54.9219C17.4922 54.9219 15.8516 53.3594 15.8672 51.25C15.8516 49.1094 17.4922 47.5625 19.6484 47.5469C20.75 47.5547 21.7344 47.9922 22.4297 48.7188H25.6797V46.7344H27.6641ZM28.0078 59.0938V60.6875H18.2266V56.0781H20.2266V59.0938H28.0078ZM19.6484 49.3281C18.5391 49.3281 17.7422 50.0469 17.7578 51.25C17.7422 52.4375 18.5391 53.1562 19.6484 53.1562C20.6953 53.1562 21.5078 52.4375 21.5078 51.25C21.5078 50.0469 20.6953 49.3281 19.6484 49.3281ZM23.2891 50.3125C23.3594 50.6094 23.3984 50.9219 23.3984 51.25C23.3984 51.5625 23.3594 51.8672 23.2891 52.1562H25.6797V50.3125H23.2891ZM32.9922 55.25V56.4531H38.8516V55.25H40.8359V60.7812H31.0234V55.25H32.9922ZM32.9922 59.2188H38.8516V57.9688H32.9922V59.2188ZM42.4766 52.9219V54.5312H29.5078V52.9219H42.4766ZM37.0234 47.3438C37.0234 48.7656 38.6641 50.375 41.8359 50.7344L41.1328 52.2969C38.6797 51.9844 36.9062 50.9688 35.9922 49.5938C35.0781 50.9688 33.2969 51.9844 30.8672 52.2969L30.1484 50.7344C33.3203 50.3594 34.9609 48.7969 34.9766 47.3438V46.8594H37.0234V47.3438ZM51.4141 47.6719V49.2656H48.5859C48.6016 50.9219 49.5938 52.5234 51.8672 53.1875L50.9141 54.75C49.3438 54.2734 48.2578 53.3203 47.6328 52.0938C47 53.5312 45.8438 54.6719 44.1328 55.2344L43.1172 53.6562C45.4766 52.9141 46.5391 51.0703 46.5703 49.2656H43.6641V47.6719H51.4141ZM54.6172 46.7188V50.0156H56.5391V51.6406H54.6172V55.1562H52.6172V46.7188H54.6172ZM49.9609 55.4375C52.9141 55.4219 54.7578 56.4375 54.7578 58.1719C54.7578 59.9062 52.9141 60.9375 49.9609 60.9375C46.9453 60.9375 45.0859 59.9062 45.0859 58.1719C45.0859 56.4375 46.9453 55.4219 49.9609 55.4375ZM49.9609 56.9844C48.0859 56.9844 47.0703 57.375 47.0859 58.1719C47.0703 58.9844 48.0859 59.3906 49.9609 59.3906C51.8047 59.3906 52.7891 58.9844 52.7891 58.1719C52.7891 57.375 51.8047 56.9844 49.9609 56.9844Z" fill="#111111"/>
</svg>
