<svg width="24" height="24" viewBox="0 0 24 24" fill="none" xmlns="http://www.w3.org/2000/svg">
<g id="btn_icon">
<path id="Vector 1" d="M4.5 20.85C4.00294 20.85 3.6 21.2529 3.6 21.75C3.6 22.2471 4.00294 22.65 4.5 22.65V20.85ZM22 22.65H22.9V20.85H22V22.65ZM4.5 22.65L22 22.65V20.85L4.5 20.85V22.65Z" fill="#F04C42"/>
<path id="Vector" d="M3.29389 18.0186L3.00238 21.1767C2.96213 21.6055 3.44015 21.8961 3.81786 21.6729L6.60076 20.0278C7.06805 19.7513 7.1575 19.5385 7.5 19.125L3.74708 16.5C3.51696 16.9811 3.34354 17.4868 3.29389 18.0186Z" stroke="#F04C42" stroke-width="1.6" stroke-linecap="square" stroke-linejoin="round"/>
<path id="Vector_2" d="M15.9175 4.50507L13.6998 3.17971C13.1199 2.83329 12.3568 3.00284 11.9959 3.5581L5.25 13.9199L9.56684 16.5L16.3127 6.13755C16.6736 5.58196 16.4973 4.85149 15.9178 4.50507H15.9175Z" stroke="#F04C42" stroke-width="1.6" stroke-linecap="square" stroke-linejoin="round"/>
</g>
</svg>
