<svg width="28" height="28" viewBox="0 0 28 28" fill="none" xmlns="http://www.w3.org/2000/svg">
<mask id="mask0_167_3662" style="mask-type:alpha" maskUnits="userSpaceOnUse" x="0" y="0" width="28" height="28">
<rect width="28" height="28" fill="#D9D9D9"/>
</mask>
<g mask="url(#mask0_167_3662)">
<path d="M20.446 12.3958C20.7182 12.2208 20.8543 11.9777 20.8543 11.6666C20.8543 11.3555 20.7182 11.1124 20.446 10.9374L14.7585 7.29159C14.4668 7.09714 14.1703 7.08256 13.8689 7.24784C13.5675 7.41311 13.4168 7.67075 13.4168 8.02075V15.3124C13.4168 15.6624 13.5675 15.9201 13.8689 16.0853C14.1703 16.2506 14.4668 16.236 14.7585 16.0416L20.446 12.3958ZM9.3335 20.9999C8.69183 20.9999 8.14252 20.7714 7.68558 20.3145C7.22864 19.8576 7.00016 19.3083 7.00016 18.6666V4.66659C7.00016 4.02492 7.22864 3.47561 7.68558 3.01867C8.14252 2.56172 8.69183 2.33325 9.3335 2.33325H23.3335C23.9752 2.33325 24.5245 2.56172 24.9814 3.01867C25.4384 3.47561 25.6668 4.02492 25.6668 4.66659V18.6666C25.6668 19.3083 25.4384 19.8576 24.9814 20.3145C24.5245 20.7714 23.9752 20.9999 23.3335 20.9999H9.3335ZM9.3335 18.6666H23.3335V4.66659H9.3335V18.6666ZM4.66683 25.6666C4.02516 25.6666 3.47586 25.4381 3.01891 24.9812C2.56197 24.5242 2.3335 23.9749 2.3335 23.3333V8.16659C2.3335 7.83603 2.4453 7.55895 2.66891 7.33534C2.89252 7.11172 3.16961 6.99992 3.50016 6.99992C3.83072 6.99992 4.1078 7.11172 4.33141 7.33534C4.55502 7.55895 4.66683 7.83603 4.66683 8.16659V23.3333H19.8335C20.1641 23.3333 20.4411 23.4451 20.6647 23.6687C20.8884 23.8923 21.0002 24.1694 21.0002 24.4999C21.0002 24.8305 20.8884 25.1076 20.6647 25.3312C20.4411 25.5548 20.1641 25.6666 19.8335 25.6666H4.66683Z" fill="white"/>
</g>
</svg>
