<svg width="72" height="72" viewBox="0 0 72 72" fill="none" xmlns="http://www.w3.org/2000/svg">
<rect width="72" height="72" rx="10" fill="white"/>
<rect x="0.8" y="0.8" width="70.4" height="70.4" rx="9.2" stroke="#111111" stroke-opacity="0.8" stroke-width="1.6"/>
<path d="M28.6666 34.5L28.6666 32.5" stroke="#111111" stroke-width="1.6" stroke-linecap="round"/>
<path d="M33.3333 34.5L33.3333 32.5" stroke="#111111" stroke-width="1.6" stroke-linecap="round"/>
<path d="M38 34.5L38 32.5" stroke="#111111" stroke-width="1.6" stroke-linecap="round"/>
<path d="M42.6666 34.5L42.6666 32.5" stroke="#111111" stroke-width="1.6" stroke-linecap="round"/>
<mask id="path-7-inside-1_150_72101" fill="white">
<path fill-rule="evenodd" clip-rule="evenodd" d="M48.3184 24.0644C48.9884 25.6821 49.3333 27.4159 49.3333 29.1668V33.8335C49.3333 34.9381 48.4379 35.8335 47.3333 35.8335H24.6666C23.5621 35.8335 22.6666 34.9381 22.6666 33.8335V29.1668C22.6666 27.4159 23.0115 25.6821 23.6816 24.0644C24.3516 22.4467 25.3338 20.9769 26.5719 19.7387C27.81 18.5006 29.2798 17.5185 30.8975 16.8484C32.5152 16.1784 34.249 15.8335 36 15.8335C37.7509 15.8335 39.4847 16.1784 41.1024 16.8484C42.7201 17.5185 44.1899 18.5006 45.4281 19.7387C46.6662 20.9769 47.6483 22.4467 48.3184 24.0644Z"/>
</mask>
<path d="M48.3184 24.0644L46.8401 24.6767V24.6767L48.3184 24.0644ZM22.6666 29.1668L24.2666 29.1668V29.1668H22.6666ZM23.6816 24.0644L25.1598 24.6767L23.6816 24.0644ZM26.5719 19.7387L25.4405 18.6074L26.5719 19.7387ZM30.8975 16.8484L30.2852 15.3702V15.3702L30.8975 16.8484ZM41.1024 16.8484L40.4901 18.3266H40.4901L41.1024 16.8484ZM45.4281 19.7387L44.2967 20.8701L44.2967 20.8701L45.4281 19.7387ZM50.9333 29.1668C50.9333 27.2058 50.547 25.2639 49.7966 23.4521L46.8401 24.6767C47.4298 26.1002 47.7333 27.626 47.7333 29.1668H50.9333ZM47.7333 29.1668V33.8335H50.9333V29.1668H47.7333ZM47.3333 34.2335H24.6666V37.4335H47.3333V34.2335ZM24.2666 33.8335V29.1668H21.0666V33.8335H24.2666ZM22.2034 23.4521C21.4529 25.2639 21.0666 27.2058 21.0666 29.1668L24.2666 29.1668C24.2666 27.626 24.5701 26.1002 25.1598 24.6767L22.2034 23.4521ZM25.4405 18.6074C24.0538 19.9941 22.9538 21.6403 22.2034 23.4521L25.1598 24.6767C25.7494 23.2531 26.6137 21.9597 27.7032 20.8701L25.4405 18.6074ZM30.2852 15.3702C28.4734 16.1207 26.8272 17.2207 25.4405 18.6074L27.7032 20.8701C28.7928 19.7806 30.0863 18.9163 31.5098 18.3266L30.2852 15.3702ZM36 14.2335C34.0389 14.2335 32.097 14.6198 30.2852 15.3702L31.5098 18.3266C32.9334 17.737 34.4591 17.4335 36 17.4335V14.2335ZM41.7147 15.3702C39.9029 14.6198 37.961 14.2335 36 14.2335V17.4335C37.5408 17.4335 39.0666 17.737 40.4901 18.3266L41.7147 15.3702ZM46.5594 18.6074C45.1727 17.2207 43.5265 16.1207 41.7147 15.3702L40.4901 18.3266C41.9137 18.9163 43.2071 19.7806 44.2967 20.8701L46.5594 18.6074ZM49.7966 23.4521C49.0461 21.6403 47.9461 19.9941 46.5594 18.6074L44.2967 20.8701C45.3862 21.9597 46.2505 23.2531 46.8401 24.6767L49.7966 23.4521ZM24.6666 34.2335C24.4457 34.2335 24.2666 34.0544 24.2666 33.8335H21.0666C21.0666 35.8217 22.6784 37.4335 24.6666 37.4335V34.2335ZM47.7333 33.8335C47.7333 34.0544 47.5542 34.2335 47.3333 34.2335V37.4335C49.3215 37.4335 50.9333 35.8217 50.9333 33.8335H47.7333Z" fill="#111111" mask="url(#path-7-inside-1_150_72101)"/>
<mask id="path-9-inside-2_150_72101" fill="white">
<path d="M42.6666 29.1667C42.6666 28.2912 42.4941 27.4243 42.1591 26.6154C41.8241 25.8066 41.333 25.0717 40.714 24.4526C40.0949 23.8336 39.36 23.3425 38.5511 23.0075C37.7423 22.6724 36.8754 22.5 35.9999 22.5C35.1244 22.5 34.2575 22.6724 33.4487 23.0075C32.6399 23.3425 31.9049 23.8336 31.2859 24.4526C30.6668 25.0717 30.1758 25.8066 29.8407 26.6154C29.5057 27.4243 29.3333 28.2912 29.3333 29.1667L35.9999 29.1667H42.6666Z"/>
</mask>
<path d="M42.6666 29.1667C42.6666 28.2912 42.4941 27.4243 42.1591 26.6154C41.8241 25.8066 41.333 25.0717 40.714 24.4526C40.0949 23.8336 39.36 23.3425 38.5511 23.0075C37.7423 22.6724 36.8754 22.5 35.9999 22.5C35.1244 22.5 34.2575 22.6724 33.4487 23.0075C32.6399 23.3425 31.9049 23.8336 31.2859 24.4526C30.6668 25.0717 30.1758 25.8066 29.8407 26.6154C29.5057 27.4243 29.3333 28.2912 29.3333 29.1667L35.9999 29.1667H42.6666Z" stroke="#111111" stroke-width="3.2" stroke-linejoin="round" mask="url(#path-9-inside-2_150_72101)"/>
<path d="M26.9609 46.7188V50.0469H28.8828V51.7031H26.9609V54.9844H24.9609V46.7188H26.9609ZM22.9609 47.5156C22.9609 51.3125 20.5703 53.875 16.3047 54.9531L15.4766 53.4375C18.7188 52.625 20.5 51.0156 20.8047 49.0938H16.2266V47.5156H22.9609ZM26.9609 55.5469V60.9375H24.9609V57.1406H17.3828V55.5469H26.9609ZM41.1016 53.0781V54.6562H36.9766V57.6875H42.5234V59.3125H29.5078V57.6875H34.9922V54.6562H31.0391V47.7188H40.9922V49.3125H33.0391V53.0781H41.1016ZM55.2891 46.7188V60.9375H53.2734V46.7188H55.2891ZM51.0234 48.2031C51.0234 52.5156 49.5078 56.0938 44.4297 58.5L43.3828 56.9062C47.0547 55.1719 48.6719 52.9219 48.9922 49.7656H44.1484V48.2031H51.0234Z" fill="#111111"/>
</svg>
